<svg width="149" height="28" viewBox="0 0 149 28" fill="none" xmlns="http://www.w3.org/2000/svg">
<path d="M0.617188 14.2559C0.617188 9.73242 1.83008 6.24609 4.25586 3.79688C6.36523 1.66406 9.04883 0.597656 12.3066 0.597656C16.666 0.597656 19.8535 2.02734 21.8691 4.88672C22.9824 6.49219 23.5801 8.10352 23.6621 9.7207H18.248C17.8965 8.47852 17.4453 7.54102 16.8945 6.9082C15.9102 5.7832 14.4512 5.2207 12.5176 5.2207C10.5488 5.2207 8.99609 6.01758 7.85938 7.61133C6.72266 9.19336 6.1543 11.4375 6.1543 14.3438C6.1543 17.25 6.75195 19.4297 7.94727 20.8828C9.1543 22.3242 10.6836 23.0449 12.5352 23.0449C14.4336 23.0449 15.8809 22.4238 16.877 21.1816C17.4277 20.5137 17.8848 19.5117 18.248 18.1758H23.6094C23.1406 21 21.9395 23.2969 20.0059 25.0664C18.084 26.8359 15.6172 27.7207 12.6055 27.7207C8.87891 27.7207 5.94922 26.5254 3.81641 24.1348C1.68359 21.7324 0.617188 18.4395 0.617188 14.2559ZM37.918 17.6836C37.6016 17.8828 37.2793 18.0469 36.9512 18.1758C36.6348 18.293 36.1953 18.4043 35.6328 18.5098L34.5078 18.7207C33.4531 18.9082 32.6973 19.1367 32.2402 19.4062C31.4668 19.8633 31.0801 20.5723 31.0801 21.5332C31.0801 22.3887 31.3145 23.0098 31.7832 23.3965C32.2637 23.7715 32.8438 23.959 33.5234 23.959C34.6016 23.959 35.5918 23.6426 36.4941 23.0098C37.4082 22.377 37.8828 21.2227 37.918 19.5469V17.6836ZM34.877 15.3457C35.8027 15.2285 36.4648 15.082 36.8633 14.9062C37.5781 14.6016 37.9355 14.127 37.9355 13.4824C37.9355 12.6973 37.6602 12.1582 37.1094 11.8652C36.5703 11.5605 35.7734 11.4082 34.7188 11.4082C33.5352 11.4082 32.6973 11.7012 32.2051 12.2871C31.8535 12.7207 31.6191 13.3066 31.502 14.0449H26.668C26.7734 12.3691 27.2422 10.9922 28.0742 9.91406C29.3984 8.22656 31.6719 7.38281 34.8945 7.38281C36.9922 7.38281 38.8555 7.79883 40.4844 8.63086C42.1133 9.46289 42.9277 11.0332 42.9277 13.3418V22.1309C42.9277 22.7402 42.9395 23.4785 42.9629 24.3457C42.998 25.002 43.0977 25.4473 43.2617 25.6816C43.4258 25.916 43.6719 26.1094 44 26.2617V27H38.5508C38.3984 26.6133 38.293 26.25 38.2344 25.9102C38.1758 25.5703 38.1289 25.1836 38.0938 24.75C37.4023 25.5 36.6055 26.1387 35.7031 26.666C34.625 27.2871 33.4062 27.5977 32.0469 27.5977C30.3125 27.5977 28.877 27.1055 27.7402 26.1211C26.6152 25.125 26.0527 23.7188 26.0527 21.9023C26.0527 19.5469 26.9609 17.8418 28.7773 16.7871C29.7734 16.2129 31.2383 15.8027 33.1719 15.5566L34.877 15.3457ZM57.7461 7.41797C60.2656 7.41797 62.2344 8.32617 63.6523 10.1426C65.082 11.959 65.7969 14.3027 65.7969 17.1738C65.7969 20.1504 65.0938 22.6172 63.6875 24.5742C62.2812 26.5312 60.3184 27.5098 57.7988 27.5098C56.2168 27.5098 54.9453 27.1934 53.9844 26.5605C53.4102 26.1855 52.7891 25.5293 52.1211 24.5918V27H47.2168V1.125H52.209V10.3359C52.8418 9.44531 53.5391 8.76563 54.3008 8.29688C55.2031 7.71094 56.3516 7.41797 57.7461 7.41797ZM56.4629 23.3789C57.752 23.3789 58.7539 22.8574 59.4688 21.8145C60.1836 20.7715 60.541 19.4004 60.541 17.7012C60.541 16.3418 60.3652 15.2168 60.0137 14.3262C59.3457 12.6387 58.1152 11.7949 56.3223 11.7949C54.5059 11.7949 53.2578 12.6211 52.5781 14.2734C52.2266 15.1523 52.0508 16.2891 52.0508 17.6836C52.0508 19.3242 52.4141 20.6836 53.1406 21.7617C53.8672 22.8398 54.9746 23.3789 56.4629 23.3789ZM79.9648 17.6836C79.6484 17.8828 79.3262 18.0469 78.998 18.1758C78.6816 18.293 78.2422 18.4043 77.6797 18.5098L76.5547 18.7207C75.5 18.9082 74.7441 19.1367 74.2871 19.4062C73.5137 19.8633 73.127 20.5723 73.127 21.5332C73.127 22.3887 73.3613 23.0098 73.8301 23.3965C74.3105 23.7715 74.8906 23.959 75.5703 23.959C76.6484 23.959 77.6387 23.6426 78.541 23.0098C79.4551 22.377 79.9297 21.2227 79.9648 19.5469V17.6836ZM76.9238 15.3457C77.8496 15.2285 78.5117 15.082 78.9102 14.9062C79.625 14.6016 79.9824 14.127 79.9824 13.4824C79.9824 12.6973 79.707 12.1582 79.1562 11.8652C78.6172 11.5605 77.8203 11.4082 76.7656 11.4082C75.582 11.4082 74.7441 11.7012 74.252 12.2871C73.9004 12.7207 73.666 13.3066 73.5488 14.0449H68.7148C68.8203 12.3691 69.2891 10.9922 70.1211 9.91406C71.4453 8.22656 73.7188 7.38281 76.9414 7.38281C79.0391 7.38281 80.9023 7.79883 82.5312 8.63086C84.1602 9.46289 84.9746 11.0332 84.9746 13.3418V22.1309C84.9746 22.7402 84.9863 23.4785 85.0098 24.3457C85.0449 25.002 85.1445 25.4473 85.3086 25.6816C85.4727 25.916 85.7188 26.1094 86.0469 26.2617V27H80.5977C80.4453 26.6133 80.3398 26.25 80.2812 25.9102C80.2227 25.5703 80.1758 25.1836 80.1406 24.75C79.4492 25.5 78.6523 26.1387 77.75 26.666C76.6719 27.2871 75.4531 27.5977 74.0938 27.5977C72.3594 27.5977 70.9238 27.1055 69.7871 26.1211C68.6621 25.125 68.0996 23.7188 68.0996 21.9023C68.0996 19.5469 69.0078 17.8418 70.8242 16.7871C71.8203 16.2129 73.2852 15.8027 75.2188 15.5566L76.9238 15.3457ZM99.8457 7.38281C99.9395 7.38281 100.016 7.38867 100.074 7.40039C100.145 7.40039 100.291 7.40625 100.514 7.41797V12.5508C100.197 12.5156 99.916 12.4922 99.6699 12.4805C99.4238 12.4688 99.2246 12.4629 99.0723 12.4629C97.0566 12.4629 95.7031 13.1191 95.0117 14.4316C94.625 15.1699 94.4316 16.3066 94.4316 17.8418V27H89.3867V7.83984H94.168V11.1797C94.9414 9.90234 95.6152 9.0293 96.1895 8.56055C97.127 7.77539 98.3457 7.38281 99.8457 7.38281ZM113.873 7.38281C113.967 7.38281 114.043 7.38867 114.102 7.40039C114.172 7.40039 114.318 7.40625 114.541 7.41797V12.5508C114.225 12.5156 113.943 12.4922 113.697 12.4805C113.451 12.4688 113.252 12.4629 113.1 12.4629C111.084 12.4629 109.73 13.1191 109.039 14.4316C108.652 15.1699 108.459 16.3066 108.459 17.8418V27H103.414V7.83984H108.195V11.1797C108.969 9.90234 109.643 9.0293 110.217 8.56055C111.154 7.77539 112.373 7.38281 113.873 7.38281ZM126.09 23.4668C127.555 23.4668 128.68 22.9453 129.465 21.9023C130.25 20.8594 130.643 19.377 130.643 17.4551C130.643 15.5332 130.25 14.0566 129.465 13.0254C128.68 11.9824 127.555 11.4609 126.09 11.4609C124.625 11.4609 123.494 11.9824 122.697 13.0254C121.912 14.0566 121.52 15.5332 121.52 17.4551C121.52 19.377 121.912 20.8594 122.697 21.9023C123.494 22.9453 124.625 23.4668 126.09 23.4668ZM135.898 17.4551C135.898 20.2676 135.09 22.6758 133.473 24.6797C131.855 26.6719 129.4 27.668 126.107 27.668C122.814 27.668 120.359 26.6719 118.742 24.6797C117.125 22.6758 116.316 20.2676 116.316 17.4551C116.316 14.6895 117.125 12.293 118.742 10.2656C120.359 8.23828 122.814 7.22461 126.107 7.22461C129.4 7.22461 131.855 8.23828 133.473 10.2656C135.09 12.293 135.898 14.6895 135.898 17.4551ZM137.533 11.584V8.01562H140.205V2.67188H145.162V8.01562H148.273V11.584H145.162V21.709C145.162 22.4941 145.262 22.9863 145.461 23.1855C145.66 23.373 146.27 23.4668 147.289 23.4668C147.441 23.4668 147.6 23.4668 147.764 23.4668C147.939 23.4551 148.109 23.4434 148.273 23.4316V27.1758L145.9 27.2637C143.533 27.3457 141.916 26.9355 141.049 26.0332C140.486 25.459 140.205 24.5742 140.205 23.3789V11.584H137.533Z" fill="#2D3142"/>
</svg>
