<svg width="162" height="27" viewBox="0 0 162 27" fill="none" xmlns="http://www.w3.org/2000/svg">
<path d="M11.888 26.36C8.456 26.36 5.756 25.532 3.788 23.876C1.844 22.22 0.812 19.796 0.692 16.604C0.668 15.956 0.656 14.9 0.656 13.436C0.656 11.948 0.668 10.868 0.692 10.196C0.812 7.076 1.856 4.676 3.824 2.996C5.816 1.292 8.504 0.439999 11.888 0.439999C14.024 0.439999 15.932 0.787998 17.612 1.484C19.316 2.18 20.66 3.188 21.644 4.508C22.628 5.828 23.144 7.388 23.192 9.188C23.192 9.404 23.108 9.584 22.94 9.728C22.796 9.872 22.616 9.944 22.4 9.944H17.288C16.952 9.944 16.7 9.884 16.532 9.764C16.388 9.62 16.256 9.368 16.136 9.008C15.8 7.832 15.284 7.016 14.588 6.56C13.916 6.08 13.016 5.84 11.888 5.84C9.176 5.84 7.772 7.352 7.676 10.376C7.652 11.024 7.64 12.02 7.64 13.364C7.64 14.708 7.652 15.728 7.676 16.424C7.772 19.448 9.176 20.96 11.888 20.96C12.992 20.96 13.892 20.72 14.588 20.24C15.308 19.76 15.824 18.944 16.136 17.792C16.232 17.432 16.364 17.192 16.532 17.072C16.7 16.928 16.952 16.856 17.288 16.856H22.4C22.616 16.856 22.796 16.928 22.94 17.072C23.108 17.216 23.192 17.396 23.192 17.612C23.144 19.412 22.628 20.972 21.644 22.292C20.66 23.612 19.316 24.62 17.612 25.316C15.932 26.012 14.024 26.36 11.888 26.36ZM32.122 26.36C30.85 26.36 29.686 26.12 28.63 25.64C27.598 25.136 26.782 24.452 26.182 23.588C25.606 22.724 25.318 21.776 25.318 20.744C25.318 19.112 25.99 17.792 27.334 16.784C28.702 15.752 30.574 15.044 32.95 14.66L37.414 13.976V13.544C37.414 12.656 37.234 12.008 36.874 11.6C36.514 11.192 35.902 10.988 35.038 10.988C34.558 10.988 34.15 11.072 33.814 11.24C33.502 11.408 33.142 11.66 32.734 11.996C32.422 12.26 32.146 12.452 31.906 12.572C31.81 12.74 31.69 12.824 31.546 12.824H27.37C27.13 12.824 26.926 12.752 26.758 12.608C26.614 12.44 26.554 12.248 26.578 12.032C26.602 11.384 26.926 10.664 27.55 9.872C28.174 9.056 29.122 8.36 30.394 7.784C31.666 7.208 33.238 6.92 35.11 6.92C38.086 6.92 40.294 7.58 41.734 8.9C43.174 10.196 43.894 11.96 43.894 14.192V25.1C43.894 25.34 43.81 25.556 43.642 25.748C43.474 25.916 43.258 26 42.994 26H38.566C38.326 26 38.11 25.916 37.918 25.748C37.75 25.556 37.666 25.34 37.666 25.1V23.84C37.138 24.584 36.406 25.196 35.47 25.676C34.534 26.132 33.418 26.36 32.122 26.36ZM33.922 22.112C34.978 22.112 35.83 21.764 36.478 21.068C37.15 20.372 37.486 19.364 37.486 18.044V17.612L34.498 18.116C32.482 18.5 31.474 19.22 31.474 20.276C31.474 20.828 31.702 21.272 32.158 21.608C32.638 21.944 33.226 22.112 33.922 22.112ZM59.5098 26.36C57.0858 26.36 55.2258 25.568 53.9298 23.984V25.1C53.9298 25.34 53.8458 25.556 53.6778 25.748C53.5098 25.916 53.2938 26 53.0298 26H48.7458C48.4818 26 48.2538 25.916 48.0618 25.748C47.8938 25.58 47.8098 25.364 47.8098 25.1V1.34C47.8098 1.076 47.8938 0.859999 48.0618 0.692C48.2538 0.523999 48.4818 0.439999 48.7458 0.439999H53.3898C53.6538 0.439999 53.8698 0.523999 54.0378 0.692C54.2058 0.859999 54.2898 1.076 54.2898 1.34V9.008C55.6098 7.616 57.3498 6.92 59.5098 6.92C61.8138 6.92 63.6378 7.676 64.9818 9.188C66.3258 10.676 67.0458 12.728 67.1418 15.344C67.1658 15.656 67.1778 16.088 67.1778 16.64C67.1778 17.168 67.1658 17.588 67.1418 17.9C67.0458 20.612 66.3258 22.7 64.9818 24.164C63.6618 25.628 61.8378 26.36 59.5098 26.36ZM57.4218 21.356C58.5018 21.356 59.2698 21.044 59.7258 20.42C60.2058 19.772 60.4818 18.884 60.5538 17.756C60.5778 17.516 60.5898 17.144 60.5898 16.64C60.5898 16.136 60.5778 15.764 60.5538 15.524C60.4818 14.396 60.2058 13.52 59.7258 12.896C59.2698 12.248 58.5018 11.924 57.4218 11.924C56.4138 11.924 55.6458 12.236 55.1178 12.86C54.6138 13.46 54.3378 14.228 54.2898 15.164C54.2658 15.476 54.2538 15.92 54.2538 16.496C54.2538 17.072 54.2658 17.528 54.2898 17.864C54.3378 18.872 54.6138 19.712 55.1178 20.384C55.6218 21.032 56.3898 21.356 57.4218 21.356ZM76.2782 26.36C75.0062 26.36 73.8422 26.12 72.7862 25.64C71.7542 25.136 70.9382 24.452 70.3382 23.588C69.7622 22.724 69.4742 21.776 69.4742 20.744C69.4742 19.112 70.1462 17.792 71.4902 16.784C72.8582 15.752 74.7302 15.044 77.1062 14.66L81.5702 13.976V13.544C81.5702 12.656 81.3902 12.008 81.0302 11.6C80.6702 11.192 80.0582 10.988 79.1942 10.988C78.7142 10.988 78.3062 11.072 77.9702 11.24C77.6582 11.408 77.2982 11.66 76.8902 11.996C76.5782 12.26 76.3022 12.452 76.0622 12.572C75.9662 12.74 75.8462 12.824 75.7022 12.824H71.5262C71.2862 12.824 71.0822 12.752 70.9142 12.608C70.7702 12.44 70.7102 12.248 70.7342 12.032C70.7582 11.384 71.0822 10.664 71.7062 9.872C72.3302 9.056 73.2782 8.36 74.5502 7.784C75.8222 7.208 77.3942 6.92 79.2662 6.92C82.2422 6.92 84.4502 7.58 85.8902 8.9C87.3302 10.196 88.0502 11.96 88.0502 14.192V25.1C88.0502 25.34 87.9662 25.556 87.7982 25.748C87.6302 25.916 87.4142 26 87.1502 26H82.7222C82.4822 26 82.2662 25.916 82.0742 25.748C81.9062 25.556 81.8222 25.34 81.8222 25.1V23.84C81.2942 24.584 80.5622 25.196 79.6262 25.676C78.6902 26.132 77.5742 26.36 76.2782 26.36ZM78.0782 22.112C79.1342 22.112 79.9862 21.764 80.6342 21.068C81.3062 20.372 81.6422 19.364 81.6422 18.044V17.612L78.6542 18.116C76.6382 18.5 75.6302 19.22 75.6302 20.276C75.6302 20.828 75.8582 21.272 76.3142 21.608C76.7942 21.944 77.3822 22.112 78.0782 22.112ZM92.8661 26C92.6261 26 92.4101 25.916 92.2181 25.748C92.0501 25.556 91.9661 25.34 91.9661 25.1V8.216C91.9661 7.952 92.0501 7.736 92.2181 7.568C92.3861 7.376 92.6021 7.28 92.8661 7.28H97.2581C97.5221 7.28 97.7381 7.376 97.9061 7.568C98.0981 7.736 98.1941 7.952 98.1941 8.216V9.584C98.8661 8.84 99.6461 8.276 100.534 7.892C101.446 7.484 102.454 7.28 103.558 7.28H105.178C105.442 7.28 105.658 7.364 105.826 7.532C105.994 7.7 106.078 7.916 106.078 8.18V12.104C106.078 12.344 105.994 12.56 105.826 12.752C105.658 12.92 105.442 13.004 105.178 13.004H101.542C100.582 13.004 99.8381 13.268 99.3101 13.796C98.8061 14.324 98.5541 15.068 98.5541 16.028V25.1C98.5541 25.364 98.4581 25.58 98.2661 25.748C98.0981 25.916 97.8821 26 97.6181 26H92.8661ZM109.46 26C109.22 26 109.004 25.916 108.812 25.748C108.644 25.556 108.56 25.34 108.56 25.1V8.216C108.56 7.952 108.644 7.736 108.812 7.568C108.98 7.376 109.196 7.28 109.46 7.28H113.852C114.116 7.28 114.332 7.376 114.5 7.568C114.692 7.736 114.788 7.952 114.788 8.216V9.584C115.46 8.84 116.24 8.276 117.128 7.892C118.04 7.484 119.048 7.28 120.152 7.28H121.772C122.036 7.28 122.252 7.364 122.42 7.532C122.588 7.7 122.672 7.916 122.672 8.18V12.104C122.672 12.344 122.588 12.56 122.42 12.752C122.252 12.92 122.036 13.004 121.772 13.004H118.136C117.176 13.004 116.432 13.268 115.904 13.796C115.4 14.324 115.148 15.068 115.148 16.028V25.1C115.148 25.364 115.052 25.58 114.86 25.748C114.692 25.916 114.476 26 114.212 26H109.46ZM134.013 26.36C130.989 26.36 128.661 25.664 127.029 24.272C125.421 22.856 124.545 20.852 124.401 18.26C124.377 17.948 124.365 17.408 124.365 16.64C124.365 15.872 124.377 15.332 124.401 15.02C124.545 12.476 125.445 10.496 127.101 9.08C128.781 7.64 131.085 6.92 134.013 6.92C136.941 6.92 139.233 7.64 140.889 9.08C142.569 10.496 143.481 12.476 143.625 15.02C143.673 15.644 143.697 16.184 143.697 16.64C143.697 17.096 143.673 17.636 143.625 18.26C143.481 20.852 142.593 22.856 140.961 24.272C139.353 25.664 137.037 26.36 134.013 26.36ZM134.013 21.824C134.997 21.824 135.729 21.524 136.209 20.924C136.689 20.3 136.965 19.352 137.037 18.08C137.061 17.84 137.073 17.36 137.073 16.64C137.073 15.92 137.061 15.44 137.037 15.2C136.965 13.952 136.689 13.016 136.209 12.392C135.729 11.768 134.997 11.456 134.013 11.456C133.029 11.456 132.297 11.768 131.817 12.392C131.337 13.016 131.061 13.952 130.989 15.2L130.953 16.64L130.989 18.08C131.061 19.352 131.337 20.3 131.817 20.924C132.297 21.524 133.029 21.824 134.013 21.824ZM156.884 26C151.796 26 149.252 23.612 149.252 18.836V12.176H146.408C146.168 12.176 145.952 12.092 145.76 11.924C145.592 11.732 145.508 11.516 145.508 11.276V8.18C145.508 7.916 145.592 7.7 145.76 7.532C145.952 7.364 146.168 7.28 146.408 7.28H149.252V1.34C149.252 1.076 149.336 0.859999 149.504 0.692C149.696 0.523999 149.912 0.439999 150.152 0.439999H154.58C154.844 0.439999 155.06 0.523999 155.228 0.692C155.396 0.859999 155.48 1.076 155.48 1.34V7.28H159.98C160.244 7.28 160.46 7.364 160.628 7.532C160.82 7.7 160.916 7.916 160.916 8.18V11.276C160.916 11.54 160.82 11.756 160.628 11.924C160.46 12.092 160.244 12.176 159.98 12.176H155.48V18.296C155.48 19.136 155.636 19.772 155.948 20.204C156.26 20.636 156.764 20.852 157.46 20.852H160.304C160.568 20.852 160.784 20.948 160.952 21.14C161.12 21.308 161.204 21.524 161.204 21.788V25.1C161.204 25.34 161.12 25.556 160.952 25.748C160.784 25.916 160.568 26 160.304 26H156.884Z" fill="#2D3142"/>
</svg>
